<mxfile host="app.diagrams.net" modified="2023-04-03T02:00:30.493Z" agent="5.0 (Windows NT 10.0; Win64; x64) AppleWebKit/537.36 (KHTML, like Gecko) Chrome/111.0.0.0 Safari/537.36" etag="8juVcRr4N3altCfSpx_f" version="21.0.10" type="github">
  <diagram name="Page-1" id="9c096ad6-e400-ecc8-3e38-643d2caac077">
    <mxGraphModel dx="2049" dy="1137" grid="1" gridSize="10" guides="1" tooltips="1" connect="1" arrows="1" fold="1" page="1" pageScale="1.5" pageWidth="1169" pageHeight="826" background="none" math="0" shadow="0">
      <root>
        <mxCell id="0" style=";html=1;" />
        <mxCell id="1" style=";html=1;" parent="0" />
        <mxCell id="3cfceab9cabfe5b9-22" style="edgeStyle=none;curved=1;html=1;startSize=10;endArrow=classic;endFill=1;endSize=10;strokeColor=#000000;strokeWidth=1;fontSize=12;" parent="1" source="30e23a8a0b95c500-1" target="3cfceab9cabfe5b9-9" edge="1">
          <mxGeometry relative="1" as="geometry" />
        </mxCell>
        <mxCell id="3cfceab9cabfe5b9-37" style="edgeStyle=none;curved=1;html=1;startSize=10;endArrow=classic;endFill=1;endSize=10;strokeWidth=1;fontSize=12;entryX=0;entryY=0.5;entryDx=0;entryDy=0;" parent="1" source="30e23a8a0b95c500-1" target="Q3ig60hGHV0NphOgF5VT-21" edge="1">
          <mxGeometry relative="1" as="geometry">
            <mxPoint x="250" y="730" as="targetPoint" />
          </mxGeometry>
        </mxCell>
        <mxCell id="30e23a8a0b95c500-1" value="&lt;table border=&quot;1&quot; width=&quot;100%&quot; style=&quot;width: 100% ; height: 100% ; border-collapse: collapse&quot;&gt;&lt;tbody&gt;&lt;tr&gt;&lt;td colspan=&quot;2&quot; align=&quot;center&quot;&gt;&lt;span style=&quot;font-size: 50px;&quot;&gt;&lt;b&gt;홈 화면&lt;/b&gt;&lt;/span&gt;&lt;/td&gt;&lt;/tr&gt;&lt;/tbody&gt;&lt;/table&gt;" style="text;html=1;strokeColor=#000000;fillColor=#f5f5f5;overflow=fill;rounded=0;shadow=1;fontSize=12;align=center;" parent="1" vertex="1">
          <mxGeometry x="10" y="280" width="270" height="100" as="geometry" />
        </mxCell>
        <mxCell id="3cfceab9cabfe5b9-23" style="edgeStyle=none;curved=1;html=1;startSize=10;endArrow=classic;endFill=1;endSize=10;strokeColor=#000000;strokeWidth=1;fontSize=12;entryX=0;entryY=0.5;entryDx=0;entryDy=0;" parent="1" source="3cfceab9cabfe5b9-9" target="Q3ig60hGHV0NphOgF5VT-14" edge="1">
          <mxGeometry relative="1" as="geometry">
            <mxPoint x="700" y="110" as="targetPoint" />
          </mxGeometry>
        </mxCell>
        <mxCell id="3cfceab9cabfe5b9-9" value="&lt;table border=&quot;1&quot; width=&quot;100%&quot; style=&quot;width: 100%; height: 100%; border-collapse: collapse; font-size: 50px;&quot;&gt;&lt;tbody&gt;&lt;tr&gt;&lt;td colspan=&quot;2&quot; align=&quot;center&quot;&gt;&lt;b&gt;로그인&lt;/b&gt;&lt;/td&gt;&lt;/tr&gt;&lt;/tbody&gt;&lt;/table&gt;" style="text;html=1;strokeColor=#000000;fillColor=#f5f5f5;overflow=fill;rounded=0;shadow=1;fontSize=12;align=center;verticalAlign=middle;" parent="1" vertex="1">
          <mxGeometry x="340" y="70" width="253" height="80" as="geometry" />
        </mxCell>
        <mxCell id="3cfceab9cabfe5b9-27" style="edgeStyle=none;curved=1;html=1;startSize=10;endArrow=classic;endFill=1;endSize=10;strokeColor=#000000;strokeWidth=1;fontSize=12;" parent="1" edge="1">
          <mxGeometry relative="1" as="geometry">
            <mxPoint x="280" y="330" as="sourcePoint" />
            <mxPoint x="489.6" y="230" as="targetPoint" />
          </mxGeometry>
        </mxCell>
        <mxCell id="3cfceab9cabfe5b9-29" style="edgeStyle=none;curved=1;html=1;startSize=10;endArrow=classic;endFill=1;endSize=10;strokeColor=#000000;strokeWidth=1;fontSize=12;exitX=1;exitY=0.5;exitDx=0;exitDy=0;" parent="1" source="30e23a8a0b95c500-1" edge="1">
          <mxGeometry relative="1" as="geometry">
            <mxPoint x="289.6042105263159" y="330.0000000000002" as="sourcePoint" />
            <mxPoint x="490" y="360" as="targetPoint" />
          </mxGeometry>
        </mxCell>
        <mxCell id="3cfceab9cabfe5b9-59" value="" style="line;strokeWidth=15;html=1;rounded=1;fontSize=12;align=center;verticalAlign=middle;strokeColor=#FF0000;endFill=1;endArrow=classic;endSize=10;startSize=10;" parent="1" vertex="1">
          <mxGeometry x="50" y="1035" width="68" height="10" as="geometry" />
        </mxCell>
        <mxCell id="3cfceab9cabfe5b9-60" value="&lt;font style=&quot;font-size: 35px;&quot;&gt;로그인 필요&lt;/font&gt;" style="text;html=1;strokeColor=none;fillColor=none;align=left;verticalAlign=middle;whiteSpace=wrap;rounded=0;shadow=1;fontSize=12;" parent="1" vertex="1">
          <mxGeometry x="133.5" y="1030" width="258" height="20" as="geometry" />
        </mxCell>
        <mxCell id="Q3ig60hGHV0NphOgF5VT-14" value="&lt;table border=&quot;1&quot; width=&quot;100%&quot; style=&quot;width: 100%; height: 100%; border-collapse: collapse; font-size: 50px;&quot;&gt;&lt;tbody&gt;&lt;tr&gt;&lt;td colspan=&quot;2&quot; align=&quot;center&quot;&gt;&lt;b&gt;회원가입&lt;/b&gt;&lt;/td&gt;&lt;/tr&gt;&lt;/tbody&gt;&lt;/table&gt;" style="text;html=1;strokeColor=#000000;fillColor=#f5f5f5;overflow=fill;rounded=0;shadow=1;fontSize=12;align=center;verticalAlign=middle;" vertex="1" parent="1">
          <mxGeometry x="700" y="70" width="250" height="80" as="geometry" />
        </mxCell>
        <mxCell id="Q3ig60hGHV0NphOgF5VT-20" value="" style="curved=1;endArrow=classic;html=1;rounded=0;exitX=0.5;exitY=0;exitDx=0;exitDy=0;entryX=0.5;entryY=0;entryDx=0;entryDy=0;" edge="1" parent="1" source="Q3ig60hGHV0NphOgF5VT-14" target="3cfceab9cabfe5b9-9">
          <mxGeometry width="50" height="50" relative="1" as="geometry">
            <mxPoint x="140" y="170" as="sourcePoint" />
            <mxPoint x="470" y="60" as="targetPoint" />
            <Array as="points">
              <mxPoint x="570" />
            </Array>
          </mxGeometry>
        </mxCell>
        <mxCell id="Q3ig60hGHV0NphOgF5VT-21" value="&lt;table border=&quot;1&quot; width=&quot;100%&quot; style=&quot;width: 100%; height: 100%; border-collapse: collapse; font-size: 50px;&quot;&gt;&lt;tbody&gt;&lt;tr&gt;&lt;td colspan=&quot;2&quot; align=&quot;center&quot;&gt;&lt;b&gt;리뷰 게시판&lt;/b&gt;&lt;/td&gt;&lt;/tr&gt;&lt;/tbody&gt;&lt;/table&gt;" style="text;html=1;strokeColor=#000000;fillColor=#f5f5f5;overflow=fill;rounded=0;shadow=1;fontSize=12;align=center;" vertex="1" parent="1">
          <mxGeometry x="491.6" y="900" width="468.4" height="100" as="geometry" />
        </mxCell>
        <mxCell id="Q3ig60hGHV0NphOgF5VT-23" value="" style="edgeStyle=none;curved=1;html=1;startSize=10;endArrow=classic;endFill=1;endSize=10;strokeColor=#FF0000;strokeWidth=1;fontSize=12;" edge="1" parent="1" target="Q3ig60hGHV0NphOgF5VT-22">
          <mxGeometry relative="1" as="geometry">
            <mxPoint x="639.6000000000005" y="263.8095238095241" as="sourcePoint" />
            <mxPoint x="741.6" y="296" as="targetPoint" />
          </mxGeometry>
        </mxCell>
        <mxCell id="Q3ig60hGHV0NphOgF5VT-22" value="&lt;table border=&quot;1&quot; width=&quot;100%&quot; style=&quot;width: 100%; height: 100%; border-collapse: collapse; font-size: 50px;&quot;&gt;&lt;tbody&gt;&lt;tr&gt;&lt;td colspan=&quot;2&quot; align=&quot;center&quot;&gt;&lt;b&gt;음식점&amp;nbsp;&lt;/b&gt;&lt;b style=&quot;border-color: var(--border-color);&quot;&gt;게시판&amp;nbsp;&lt;/b&gt;&lt;/td&gt;&lt;/tr&gt;&lt;/tbody&gt;&lt;/table&gt;" style="text;html=1;strokeColor=#000000;fillColor=#f5f5f5;overflow=fill;rounded=0;shadow=1;fontSize=12;align=center;verticalAlign=middle;" vertex="1" parent="1">
          <mxGeometry x="491.6" y="200" width="468.4" height="80" as="geometry" />
        </mxCell>
        <mxCell id="Q3ig60hGHV0NphOgF5VT-24" value="&lt;table border=&quot;1&quot; width=&quot;100%&quot; style=&quot;width: 100%; height: 100%; border-collapse: collapse; font-size: 50px;&quot;&gt;&lt;tbody&gt;&lt;tr&gt;&lt;td colspan=&quot;2&quot; align=&quot;center&quot;&gt;&lt;b&gt;카페&amp;nbsp;&lt;/b&gt;&lt;b style=&quot;border-color: var(--border-color);&quot;&gt;게시판&lt;/b&gt;&lt;/td&gt;&lt;/tr&gt;&lt;/tbody&gt;&lt;/table&gt;" style="text;html=1;strokeColor=#000000;fillColor=#f5f5f5;overflow=fill;rounded=0;shadow=1;fontSize=12;align=center;verticalAlign=middle;" vertex="1" parent="1">
          <mxGeometry x="491.6" y="325" width="468.4" height="80" as="geometry" />
        </mxCell>
        <mxCell id="Q3ig60hGHV0NphOgF5VT-25" value="&lt;table border=&quot;1&quot; width=&quot;100%&quot; style=&quot;width: 100%; height: 100%; border-collapse: collapse; font-size: 50px;&quot;&gt;&lt;tbody&gt;&lt;tr&gt;&lt;td colspan=&quot;2&quot; align=&quot;center&quot;&gt;&lt;b&gt;공연&amp;nbsp;&lt;/b&gt;&lt;b style=&quot;border-color: var(--border-color);&quot;&gt;게시판&lt;/b&gt;&lt;/td&gt;&lt;/tr&gt;&lt;/tbody&gt;&lt;/table&gt;" style="text;html=1;strokeColor=#000000;fillColor=#f5f5f5;overflow=fill;rounded=0;shadow=1;fontSize=12;align=center;verticalAlign=middle;" vertex="1" parent="1">
          <mxGeometry x="491.6" y="440" width="468.4" height="80" as="geometry" />
        </mxCell>
        <mxCell id="Q3ig60hGHV0NphOgF5VT-26" value="&lt;table border=&quot;1&quot; width=&quot;100%&quot; style=&quot;width: 100%; height: 100%; border-collapse: collapse; font-size: 50px;&quot;&gt;&lt;tbody&gt;&lt;tr&gt;&lt;td colspan=&quot;2&quot; align=&quot;center&quot;&gt;&lt;b&gt;도서관&amp;nbsp;&lt;/b&gt;&lt;b style=&quot;border-color: var(--border-color);&quot;&gt;게시판&lt;/b&gt;&lt;/td&gt;&lt;/tr&gt;&lt;/tbody&gt;&lt;/table&gt;" style="text;html=1;strokeColor=#000000;fillColor=#f5f5f5;overflow=fill;rounded=0;shadow=1;fontSize=12;align=center;verticalAlign=middle;" vertex="1" parent="1">
          <mxGeometry x="491.6" y="570" width="468.4" height="80" as="geometry" />
        </mxCell>
        <mxCell id="Q3ig60hGHV0NphOgF5VT-27" value="&lt;table border=&quot;1&quot; width=&quot;100%&quot; style=&quot;width: 100%; height: 100%; border-collapse: collapse; font-size: 50px;&quot;&gt;&lt;tbody&gt;&lt;tr&gt;&lt;td colspan=&quot;2&quot; align=&quot;center&quot;&gt;&lt;b&gt;헬스장&amp;nbsp;&lt;/b&gt;&lt;b style=&quot;border-color: var(--border-color);&quot;&gt;게시판&lt;/b&gt;&lt;/td&gt;&lt;/tr&gt;&lt;/tbody&gt;&lt;/table&gt;" style="text;html=1;strokeColor=#000000;fillColor=#f5f5f5;overflow=fill;rounded=0;shadow=1;fontSize=12;align=center;verticalAlign=middle;" vertex="1" parent="1">
          <mxGeometry x="491.6" y="690" width="468.4" height="80" as="geometry" />
        </mxCell>
        <mxCell id="Q3ig60hGHV0NphOgF5VT-28" style="edgeStyle=none;curved=1;html=1;startSize=10;endArrow=classic;endFill=1;endSize=10;strokeColor=#000000;strokeWidth=1;fontSize=12;entryX=0;entryY=0.5;entryDx=0;entryDy=0;" edge="1" parent="1" target="Q3ig60hGHV0NphOgF5VT-25">
          <mxGeometry relative="1" as="geometry">
            <mxPoint x="280" y="330" as="sourcePoint" />
            <mxPoint x="499.6" y="330" as="targetPoint" />
          </mxGeometry>
        </mxCell>
        <mxCell id="Q3ig60hGHV0NphOgF5VT-29" style="edgeStyle=none;curved=1;html=1;startSize=10;endArrow=classic;endFill=1;endSize=10;strokeColor=#000000;strokeWidth=1;fontSize=12;entryX=0.007;entryY=0.638;entryDx=0;entryDy=0;entryPerimeter=0;" edge="1" parent="1" target="Q3ig60hGHV0NphOgF5VT-26">
          <mxGeometry relative="1" as="geometry">
            <mxPoint x="280" y="330" as="sourcePoint" />
            <mxPoint x="501.6" y="440" as="targetPoint" />
          </mxGeometry>
        </mxCell>
        <mxCell id="Q3ig60hGHV0NphOgF5VT-30" style="edgeStyle=none;curved=1;html=1;startSize=10;endArrow=classic;endFill=1;endSize=10;strokeColor=#000000;strokeWidth=1;fontSize=12;entryX=0;entryY=0.5;entryDx=0;entryDy=0;" edge="1" parent="1" target="Q3ig60hGHV0NphOgF5VT-27">
          <mxGeometry relative="1" as="geometry">
            <mxPoint x="280" y="330" as="sourcePoint" />
            <mxPoint x="503.6" y="553" as="targetPoint" />
          </mxGeometry>
        </mxCell>
        <mxCell id="Q3ig60hGHV0NphOgF5VT-32" value="" style="curved=1;endArrow=classic;html=1;rounded=0;exitX=0;exitY=0.5;exitDx=0;exitDy=0;entryX=0.5;entryY=0;entryDx=0;entryDy=0;" edge="1" parent="1" source="3cfceab9cabfe5b9-9" target="30e23a8a0b95c500-1">
          <mxGeometry width="50" height="50" relative="1" as="geometry">
            <mxPoint x="133.5" y="140" as="sourcePoint" />
            <mxPoint x="183.5" y="90" as="targetPoint" />
            <Array as="points">
              <mxPoint x="110" y="100" />
            </Array>
          </mxGeometry>
        </mxCell>
        <mxCell id="Q3ig60hGHV0NphOgF5VT-37" value="" style="group" vertex="1" connectable="0" parent="1">
          <mxGeometry x="1110" y="80" width="230" height="130" as="geometry" />
        </mxCell>
        <mxCell id="Q3ig60hGHV0NphOgF5VT-34" value="&lt;table border=&quot;1&quot; width=&quot;100%&quot; style=&quot;width: 100%; height: 100%; border-collapse: collapse; font-size: 30px;&quot;&gt;&lt;tbody&gt;&lt;tr&gt;&lt;td colspan=&quot;2&quot; align=&quot;center&quot;&gt;&lt;b&gt;&lt;font style=&quot;font-size: 30px;&quot;&gt;음식점 검색&lt;/font&gt;&lt;/b&gt;&lt;/td&gt;&lt;/tr&gt;&lt;/tbody&gt;&lt;/table&gt;" style="text;html=1;strokeColor=#000000;fillColor=#f5f5f5;overflow=fill;rounded=0;shadow=1;fontSize=12;align=center;verticalAlign=middle;" vertex="1" parent="Q3ig60hGHV0NphOgF5VT-37">
          <mxGeometry width="230" height="60" as="geometry" />
        </mxCell>
        <mxCell id="Q3ig60hGHV0NphOgF5VT-36" value="&lt;table border=&quot;1&quot; width=&quot;100%&quot; style=&quot;width: 100%; height: 100%; border-collapse: collapse; font-size: 30px;&quot;&gt;&lt;tbody&gt;&lt;tr&gt;&lt;td colspan=&quot;2&quot; align=&quot;center&quot;&gt;&lt;b&gt;&lt;font style=&quot;font-size: 30px;&quot;&gt;음식점 상세보기&lt;/font&gt;&lt;/b&gt;&lt;/td&gt;&lt;/tr&gt;&lt;/tbody&gt;&lt;/table&gt;" style="text;html=1;strokeColor=#000000;fillColor=#f5f5f5;overflow=fill;rounded=0;shadow=1;fontSize=12;align=center;verticalAlign=middle;" vertex="1" parent="Q3ig60hGHV0NphOgF5VT-37">
          <mxGeometry y="70" width="230" height="60" as="geometry" />
        </mxCell>
        <mxCell id="Q3ig60hGHV0NphOgF5VT-51" style="edgeStyle=orthogonalEdgeStyle;rounded=0;orthogonalLoop=1;jettySize=auto;html=1;exitX=0.5;exitY=1;exitDx=0;exitDy=0;" edge="1" parent="Q3ig60hGHV0NphOgF5VT-37" source="Q3ig60hGHV0NphOgF5VT-34" target="Q3ig60hGHV0NphOgF5VT-34">
          <mxGeometry relative="1" as="geometry" />
        </mxCell>
        <mxCell id="Q3ig60hGHV0NphOgF5VT-38" value="" style="group" vertex="1" connectable="0" parent="1">
          <mxGeometry x="1110" y="240" width="230" height="130" as="geometry" />
        </mxCell>
        <mxCell id="Q3ig60hGHV0NphOgF5VT-39" value="&lt;table border=&quot;1&quot; width=&quot;100%&quot; style=&quot;width: 100%; height: 100%; border-collapse: collapse; font-size: 30px;&quot;&gt;&lt;tbody&gt;&lt;tr&gt;&lt;td colspan=&quot;2&quot; align=&quot;center&quot;&gt;&lt;b&gt;&lt;font style=&quot;font-size: 30px;&quot;&gt;카페 검색&lt;/font&gt;&lt;/b&gt;&lt;/td&gt;&lt;/tr&gt;&lt;/tbody&gt;&lt;/table&gt;" style="text;html=1;strokeColor=#000000;fillColor=#f5f5f5;overflow=fill;rounded=0;shadow=1;fontSize=12;align=center;verticalAlign=middle;" vertex="1" parent="Q3ig60hGHV0NphOgF5VT-38">
          <mxGeometry width="230" height="60" as="geometry" />
        </mxCell>
        <mxCell id="Q3ig60hGHV0NphOgF5VT-40" value="&lt;table border=&quot;1&quot; width=&quot;100%&quot; style=&quot;width: 100%; height: 100%; border-collapse: collapse; font-size: 30px;&quot;&gt;&lt;tbody&gt;&lt;tr&gt;&lt;td colspan=&quot;2&quot; align=&quot;center&quot;&gt;&lt;b&gt;&lt;font style=&quot;font-size: 30px;&quot;&gt;카페 상세보기&amp;nbsp;&lt;/font&gt;&lt;/b&gt;&lt;/td&gt;&lt;/tr&gt;&lt;/tbody&gt;&lt;/table&gt;" style="text;html=1;strokeColor=#000000;fillColor=#f5f5f5;overflow=fill;rounded=0;shadow=1;fontSize=12;align=center;verticalAlign=middle;" vertex="1" parent="Q3ig60hGHV0NphOgF5VT-38">
          <mxGeometry y="70" width="230" height="60" as="geometry" />
        </mxCell>
        <mxCell id="Q3ig60hGHV0NphOgF5VT-41" value="" style="group" vertex="1" connectable="0" parent="1">
          <mxGeometry x="1110" y="405" width="230" height="130" as="geometry" />
        </mxCell>
        <mxCell id="Q3ig60hGHV0NphOgF5VT-42" value="&lt;table border=&quot;1&quot; width=&quot;100%&quot; style=&quot;width: 100%; height: 100%; border-collapse: collapse; font-size: 30px;&quot;&gt;&lt;tbody&gt;&lt;tr&gt;&lt;td colspan=&quot;2&quot; align=&quot;center&quot;&gt;&lt;b&gt;&lt;font style=&quot;font-size: 30px;&quot;&gt;공연 검색&lt;/font&gt;&lt;/b&gt;&lt;/td&gt;&lt;/tr&gt;&lt;/tbody&gt;&lt;/table&gt;" style="text;html=1;strokeColor=#000000;fillColor=#f5f5f5;overflow=fill;rounded=0;shadow=1;fontSize=12;align=center;verticalAlign=middle;" vertex="1" parent="Q3ig60hGHV0NphOgF5VT-41">
          <mxGeometry width="230" height="60" as="geometry" />
        </mxCell>
        <mxCell id="Q3ig60hGHV0NphOgF5VT-43" value="&lt;table border=&quot;1&quot; width=&quot;100%&quot; style=&quot;width: 100%; height: 100%; border-collapse: collapse; font-size: 30px;&quot;&gt;&lt;tbody&gt;&lt;tr&gt;&lt;td colspan=&quot;2&quot; align=&quot;center&quot;&gt;&lt;b style=&quot;border-color: var(--border-color);&quot;&gt;공연 상세보기&amp;nbsp;&lt;/b&gt;&lt;/td&gt;&lt;/tr&gt;&lt;/tbody&gt;&lt;/table&gt;" style="text;html=1;strokeColor=#000000;fillColor=#f5f5f5;overflow=fill;rounded=0;shadow=1;fontSize=12;align=center;verticalAlign=middle;" vertex="1" parent="Q3ig60hGHV0NphOgF5VT-41">
          <mxGeometry y="70" width="230" height="60" as="geometry" />
        </mxCell>
        <mxCell id="Q3ig60hGHV0NphOgF5VT-45" value="" style="group" vertex="1" connectable="0" parent="1">
          <mxGeometry x="1110" y="570" width="230" height="130" as="geometry" />
        </mxCell>
        <mxCell id="Q3ig60hGHV0NphOgF5VT-46" value="&lt;table border=&quot;1&quot; width=&quot;100%&quot; style=&quot;width: 100%; height: 100%; border-collapse: collapse; font-size: 30px;&quot;&gt;&lt;tbody&gt;&lt;tr&gt;&lt;td colspan=&quot;2&quot; align=&quot;center&quot;&gt;&lt;b&gt;&lt;font style=&quot;font-size: 30px;&quot;&gt;도서관 검색&lt;/font&gt;&lt;/b&gt;&lt;/td&gt;&lt;/tr&gt;&lt;/tbody&gt;&lt;/table&gt;" style="text;html=1;strokeColor=#000000;fillColor=#f5f5f5;overflow=fill;rounded=0;shadow=1;fontSize=12;align=center;verticalAlign=middle;" vertex="1" parent="Q3ig60hGHV0NphOgF5VT-45">
          <mxGeometry width="230" height="60" as="geometry" />
        </mxCell>
        <mxCell id="Q3ig60hGHV0NphOgF5VT-47" value="&lt;table border=&quot;1&quot; width=&quot;100%&quot; style=&quot;width: 100%; height: 100%; border-collapse: collapse; font-size: 30px;&quot;&gt;&lt;tbody&gt;&lt;tr&gt;&lt;td colspan=&quot;2&quot; align=&quot;center&quot;&gt;&lt;b style=&quot;border-color: var(--border-color);&quot;&gt;도서관 상세보기&amp;nbsp;&lt;/b&gt;&lt;/td&gt;&lt;/tr&gt;&lt;/tbody&gt;&lt;/table&gt;" style="text;html=1;strokeColor=#000000;fillColor=#f5f5f5;overflow=fill;rounded=0;shadow=1;fontSize=12;align=center;verticalAlign=middle;" vertex="1" parent="Q3ig60hGHV0NphOgF5VT-45">
          <mxGeometry y="70" width="230" height="60" as="geometry" />
        </mxCell>
        <mxCell id="Q3ig60hGHV0NphOgF5VT-48" value="" style="group" vertex="1" connectable="0" parent="1">
          <mxGeometry x="1110" y="730" width="230" height="130" as="geometry" />
        </mxCell>
        <mxCell id="Q3ig60hGHV0NphOgF5VT-49" value="&lt;table border=&quot;1&quot; width=&quot;100%&quot; style=&quot;width: 100%; height: 100%; border-collapse: collapse; font-size: 30px;&quot;&gt;&lt;tbody&gt;&lt;tr&gt;&lt;td colspan=&quot;2&quot; align=&quot;center&quot;&gt;&lt;b&gt;&lt;font style=&quot;font-size: 30px;&quot;&gt;헬스장 검색&lt;/font&gt;&lt;/b&gt;&lt;/td&gt;&lt;/tr&gt;&lt;/tbody&gt;&lt;/table&gt;" style="text;html=1;strokeColor=#000000;fillColor=#f5f5f5;overflow=fill;rounded=0;shadow=1;fontSize=12;align=center;verticalAlign=middle;" vertex="1" parent="Q3ig60hGHV0NphOgF5VT-48">
          <mxGeometry width="230" height="60" as="geometry" />
        </mxCell>
        <mxCell id="Q3ig60hGHV0NphOgF5VT-50" value="&lt;table border=&quot;1&quot; width=&quot;100%&quot; style=&quot;width: 100%; height: 100%; border-collapse: collapse; font-size: 30px;&quot;&gt;&lt;tbody&gt;&lt;tr&gt;&lt;td colspan=&quot;2&quot; align=&quot;center&quot;&gt;&lt;b style=&quot;border-color: var(--border-color);&quot;&gt;헬스장 상세보기&amp;nbsp;&lt;/b&gt;&lt;br&gt;&lt;/td&gt;&lt;/tr&gt;&lt;/tbody&gt;&lt;/table&gt;" style="text;html=1;strokeColor=#000000;fillColor=#f5f5f5;overflow=fill;rounded=0;shadow=1;fontSize=12;align=center;verticalAlign=middle;" vertex="1" parent="Q3ig60hGHV0NphOgF5VT-48">
          <mxGeometry y="70" width="230" height="60" as="geometry" />
        </mxCell>
        <mxCell id="Q3ig60hGHV0NphOgF5VT-52" value="" style="shape=flexArrow;endArrow=classic;html=1;rounded=0;exitX=1;exitY=0.5;exitDx=0;exitDy=0;fillColor=#000000;" edge="1" parent="1" source="Q3ig60hGHV0NphOgF5VT-22">
          <mxGeometry width="50" height="50" relative="1" as="geometry">
            <mxPoint x="890" y="420" as="sourcePoint" />
            <mxPoint x="1110" y="150" as="targetPoint" />
          </mxGeometry>
        </mxCell>
        <mxCell id="Q3ig60hGHV0NphOgF5VT-53" value="" style="shape=flexArrow;endArrow=classic;html=1;rounded=0;exitX=1;exitY=0.5;exitDx=0;exitDy=0;fillColor=#000000;entryX=0;entryY=0;entryDx=0;entryDy=0;" edge="1" parent="1" target="Q3ig60hGHV0NphOgF5VT-40">
          <mxGeometry width="50" height="50" relative="1" as="geometry">
            <mxPoint x="960" y="345" as="sourcePoint" />
            <mxPoint x="1100" y="310" as="targetPoint" />
          </mxGeometry>
        </mxCell>
        <mxCell id="Q3ig60hGHV0NphOgF5VT-54" value="" style="shape=flexArrow;endArrow=classic;html=1;rounded=0;exitX=1;exitY=0.5;exitDx=0;exitDy=0;fillColor=#000000;" edge="1" parent="1">
          <mxGeometry width="50" height="50" relative="1" as="geometry">
            <mxPoint x="960" y="475" as="sourcePoint" />
            <mxPoint x="1110" y="470" as="targetPoint" />
          </mxGeometry>
        </mxCell>
        <mxCell id="Q3ig60hGHV0NphOgF5VT-55" value="" style="shape=flexArrow;endArrow=classic;html=1;rounded=0;exitX=1;exitY=0.5;exitDx=0;exitDy=0;fillColor=#000000;" edge="1" parent="1">
          <mxGeometry width="50" height="50" relative="1" as="geometry">
            <mxPoint x="960" y="605" as="sourcePoint" />
            <mxPoint x="1110" y="630" as="targetPoint" />
          </mxGeometry>
        </mxCell>
        <mxCell id="Q3ig60hGHV0NphOgF5VT-56" value="" style="shape=flexArrow;endArrow=classic;html=1;rounded=0;exitX=1;exitY=0.5;exitDx=0;exitDy=0;fillColor=#000000;entryX=0;entryY=1;entryDx=0;entryDy=0;" edge="1" parent="1" target="Q3ig60hGHV0NphOgF5VT-49">
          <mxGeometry width="50" height="50" relative="1" as="geometry">
            <mxPoint x="960" y="730" as="sourcePoint" />
            <mxPoint x="1110" y="755" as="targetPoint" />
          </mxGeometry>
        </mxCell>
        <mxCell id="Q3ig60hGHV0NphOgF5VT-57" value="" style="shape=flexArrow;endArrow=classic;html=1;rounded=0;exitX=1;exitY=0.5;exitDx=0;exitDy=0;fillColor=#000000;" edge="1" parent="1">
          <mxGeometry width="50" height="50" relative="1" as="geometry">
            <mxPoint x="1340" y="150" as="sourcePoint" />
            <mxPoint x="1490" y="150" as="targetPoint" />
          </mxGeometry>
        </mxCell>
        <mxCell id="Q3ig60hGHV0NphOgF5VT-59" value="" style="shape=flexArrow;endArrow=classic;html=1;rounded=0;exitX=1;exitY=0.5;exitDx=0;exitDy=0;fillColor=#000000;" edge="1" parent="1">
          <mxGeometry width="50" height="50" relative="1" as="geometry">
            <mxPoint x="1340" y="304.28999999999996" as="sourcePoint" />
            <mxPoint x="1490" y="304.28999999999996" as="targetPoint" />
          </mxGeometry>
        </mxCell>
        <mxCell id="Q3ig60hGHV0NphOgF5VT-60" value="" style="shape=flexArrow;endArrow=classic;html=1;rounded=0;exitX=1;exitY=0.5;exitDx=0;exitDy=0;fillColor=#000000;" edge="1" parent="1">
          <mxGeometry width="50" height="50" relative="1" as="geometry">
            <mxPoint x="1340" y="469.29" as="sourcePoint" />
            <mxPoint x="1490" y="469.29" as="targetPoint" />
          </mxGeometry>
        </mxCell>
        <mxCell id="Q3ig60hGHV0NphOgF5VT-61" value="" style="shape=flexArrow;endArrow=classic;html=1;rounded=0;exitX=1;exitY=0.5;exitDx=0;exitDy=0;fillColor=#000000;" edge="1" parent="1">
          <mxGeometry width="50" height="50" relative="1" as="geometry">
            <mxPoint x="1340" y="634.29" as="sourcePoint" />
            <mxPoint x="1490" y="634.29" as="targetPoint" />
          </mxGeometry>
        </mxCell>
        <mxCell id="Q3ig60hGHV0NphOgF5VT-62" value="" style="shape=flexArrow;endArrow=classic;html=1;rounded=0;exitX=1;exitY=0.5;exitDx=0;exitDy=0;fillColor=#FF0000;" edge="1" parent="1">
          <mxGeometry width="50" height="50" relative="1" as="geometry">
            <mxPoint x="1340" y="794.29" as="sourcePoint" />
            <mxPoint x="1490" y="794.29" as="targetPoint" />
          </mxGeometry>
        </mxCell>
        <mxCell id="Q3ig60hGHV0NphOgF5VT-63" value="" style="shape=flexArrow;endArrow=classic;html=1;rounded=0;exitX=1;exitY=0.5;exitDx=0;exitDy=0;fillColor=#FF0000;" edge="1" parent="1">
          <mxGeometry width="50" height="50" relative="1" as="geometry">
            <mxPoint x="1340" y="150" as="sourcePoint" />
            <mxPoint x="1490" y="150" as="targetPoint" />
          </mxGeometry>
        </mxCell>
        <mxCell id="Q3ig60hGHV0NphOgF5VT-64" value="" style="shape=flexArrow;endArrow=classic;html=1;rounded=0;exitX=1;exitY=0.5;exitDx=0;exitDy=0;fillColor=#FF0000;" edge="1" parent="1">
          <mxGeometry width="50" height="50" relative="1" as="geometry">
            <mxPoint x="1340" y="304.28999999999996" as="sourcePoint" />
            <mxPoint x="1490" y="304.28999999999996" as="targetPoint" />
          </mxGeometry>
        </mxCell>
        <mxCell id="Q3ig60hGHV0NphOgF5VT-65" value="" style="shape=flexArrow;endArrow=classic;html=1;rounded=0;exitX=1;exitY=0.5;exitDx=0;exitDy=0;fillColor=#FF0000;" edge="1" parent="1">
          <mxGeometry width="50" height="50" relative="1" as="geometry">
            <mxPoint x="1340" y="469.29" as="sourcePoint" />
            <mxPoint x="1490" y="469.29" as="targetPoint" />
          </mxGeometry>
        </mxCell>
        <mxCell id="Q3ig60hGHV0NphOgF5VT-66" value="" style="shape=flexArrow;endArrow=classic;html=1;rounded=0;exitX=1;exitY=0.5;exitDx=0;exitDy=0;fillColor=#FF0000;" edge="1" parent="1">
          <mxGeometry width="50" height="50" relative="1" as="geometry">
            <mxPoint x="1340" y="634.29" as="sourcePoint" />
            <mxPoint x="1490" y="634.29" as="targetPoint" />
          </mxGeometry>
        </mxCell>
        <mxCell id="Q3ig60hGHV0NphOgF5VT-68" value="&lt;table border=&quot;1&quot; width=&quot;100%&quot; style=&quot;width: 100%; height: 100%; border-collapse: collapse; font-size: 30px;&quot;&gt;&lt;tbody&gt;&lt;tr&gt;&lt;td colspan=&quot;2&quot; align=&quot;center&quot;&gt;&lt;b&gt;&lt;font style=&quot;font-size: 30px;&quot;&gt;음식점 리뷰 작성&lt;/font&gt;&lt;/b&gt;&lt;/td&gt;&lt;/tr&gt;&lt;/tbody&gt;&lt;/table&gt;" style="text;html=1;strokeColor=#000000;fillColor=#f5f5f5;overflow=fill;rounded=0;shadow=1;fontSize=12;align=center;verticalAlign=middle;" vertex="1" parent="1">
          <mxGeometry x="1490" y="115" width="250" height="60" as="geometry" />
        </mxCell>
        <mxCell id="Q3ig60hGHV0NphOgF5VT-70" style="edgeStyle=orthogonalEdgeStyle;rounded=0;orthogonalLoop=1;jettySize=auto;html=1;exitX=0.5;exitY=1;exitDx=0;exitDy=0;" edge="1" parent="1" source="Q3ig60hGHV0NphOgF5VT-68" target="Q3ig60hGHV0NphOgF5VT-68">
          <mxGeometry relative="1" as="geometry" />
        </mxCell>
        <mxCell id="Q3ig60hGHV0NphOgF5VT-71" value="&lt;table border=&quot;1&quot; width=&quot;100%&quot; style=&quot;width: 100%; height: 100%; border-collapse: collapse; font-size: 30px;&quot;&gt;&lt;tbody&gt;&lt;tr&gt;&lt;td colspan=&quot;2&quot; align=&quot;center&quot;&gt;&lt;b&gt;&lt;font style=&quot;font-size: 30px;&quot;&gt;카페 리뷰 작성&lt;/font&gt;&lt;/b&gt;&lt;/td&gt;&lt;/tr&gt;&lt;/tbody&gt;&lt;/table&gt;" style="text;html=1;strokeColor=#000000;fillColor=#f5f5f5;overflow=fill;rounded=0;shadow=1;fontSize=12;align=center;verticalAlign=middle;" vertex="1" parent="1">
          <mxGeometry x="1490" y="275" width="250" height="60" as="geometry" />
        </mxCell>
        <mxCell id="Q3ig60hGHV0NphOgF5VT-72" value="&lt;table border=&quot;1&quot; width=&quot;100%&quot; style=&quot;width: 100%; height: 100%; border-collapse: collapse; font-size: 30px;&quot;&gt;&lt;tbody&gt;&lt;tr&gt;&lt;td colspan=&quot;2&quot; align=&quot;center&quot;&gt;&lt;b&gt;&lt;font style=&quot;font-size: 30px;&quot;&gt;공연 리뷰 작성&lt;/font&gt;&lt;/b&gt;&lt;/td&gt;&lt;/tr&gt;&lt;/tbody&gt;&lt;/table&gt;" style="text;html=1;strokeColor=#000000;fillColor=#f5f5f5;overflow=fill;rounded=0;shadow=1;fontSize=12;align=center;verticalAlign=middle;" vertex="1" parent="1">
          <mxGeometry x="1490" y="440" width="250" height="60" as="geometry" />
        </mxCell>
        <mxCell id="Q3ig60hGHV0NphOgF5VT-73" value="&lt;table border=&quot;1&quot; width=&quot;100%&quot; style=&quot;width: 100%; height: 100%; border-collapse: collapse; font-size: 30px;&quot;&gt;&lt;tbody&gt;&lt;tr&gt;&lt;td colspan=&quot;2&quot; align=&quot;center&quot;&gt;&lt;b&gt;&lt;font style=&quot;font-size: 30px;&quot;&gt;도서관 리뷰 작성&lt;/font&gt;&lt;/b&gt;&lt;/td&gt;&lt;/tr&gt;&lt;/tbody&gt;&lt;/table&gt;" style="text;html=1;strokeColor=#000000;fillColor=#f5f5f5;overflow=fill;rounded=0;shadow=1;fontSize=12;align=center;verticalAlign=middle;" vertex="1" parent="1">
          <mxGeometry x="1490" y="600" width="250" height="60" as="geometry" />
        </mxCell>
        <mxCell id="Q3ig60hGHV0NphOgF5VT-74" value="&lt;table border=&quot;1&quot; width=&quot;100%&quot; style=&quot;width: 100%; height: 100%; border-collapse: collapse; font-size: 30px;&quot;&gt;&lt;tbody&gt;&lt;tr&gt;&lt;td colspan=&quot;2&quot; align=&quot;center&quot;&gt;&lt;b&gt;&lt;font style=&quot;font-size: 30px;&quot;&gt;헬스장 리뷰 작성&lt;/font&gt;&lt;/b&gt;&lt;/td&gt;&lt;/tr&gt;&lt;/tbody&gt;&lt;/table&gt;" style="text;html=1;strokeColor=#000000;fillColor=#f5f5f5;overflow=fill;rounded=0;shadow=1;fontSize=12;align=center;verticalAlign=middle;" vertex="1" parent="1">
          <mxGeometry x="1490" y="765" width="250" height="60" as="geometry" />
        </mxCell>
        <mxCell id="Q3ig60hGHV0NphOgF5VT-76" value="" style="shape=flexArrow;endArrow=classic;html=1;rounded=0;exitX=1;exitY=0.5;exitDx=0;exitDy=0;fillColor=#FF0000;" edge="1" parent="1" source="Q3ig60hGHV0NphOgF5VT-21">
          <mxGeometry width="50" height="50" relative="1" as="geometry">
            <mxPoint x="960" y="940" as="sourcePoint" />
            <mxPoint x="1110" y="950" as="targetPoint" />
          </mxGeometry>
        </mxCell>
        <mxCell id="Q3ig60hGHV0NphOgF5VT-78" value="" style="group" vertex="1" connectable="0" parent="1">
          <mxGeometry x="1110" y="885" width="240" height="130" as="geometry" />
        </mxCell>
        <mxCell id="Q3ig60hGHV0NphOgF5VT-75" value="&lt;table border=&quot;1&quot; width=&quot;100%&quot; style=&quot;width: 100%; height: 100%; border-collapse: collapse; font-size: 30px;&quot;&gt;&lt;tbody&gt;&lt;tr&gt;&lt;td colspan=&quot;2&quot; align=&quot;center&quot;&gt;&lt;b&gt;&lt;font style=&quot;font-size: 30px;&quot;&gt;리뷰 수정&lt;/font&gt;&lt;/b&gt;&lt;/td&gt;&lt;/tr&gt;&lt;/tbody&gt;&lt;/table&gt;" style="text;html=1;strokeColor=#000000;fillColor=#f5f5f5;overflow=fill;rounded=0;shadow=1;fontSize=12;align=center;verticalAlign=middle;" vertex="1" parent="Q3ig60hGHV0NphOgF5VT-78">
          <mxGeometry width="240" height="60" as="geometry" />
        </mxCell>
        <mxCell id="Q3ig60hGHV0NphOgF5VT-77" value="&lt;table border=&quot;1&quot; width=&quot;100%&quot; style=&quot;width: 100%; height: 100%; border-collapse: collapse; font-size: 30px;&quot;&gt;&lt;tbody&gt;&lt;tr&gt;&lt;td colspan=&quot;2&quot; align=&quot;center&quot;&gt;&lt;b&gt;&lt;font style=&quot;font-size: 30px;&quot;&gt;리뷰 삭제&lt;/font&gt;&lt;/b&gt;&lt;/td&gt;&lt;/tr&gt;&lt;/tbody&gt;&lt;/table&gt;" style="text;html=1;strokeColor=#000000;fillColor=#f5f5f5;overflow=fill;rounded=0;shadow=1;fontSize=12;align=center;verticalAlign=middle;" vertex="1" parent="Q3ig60hGHV0NphOgF5VT-78">
          <mxGeometry y="70" width="240" height="60" as="geometry" />
        </mxCell>
      </root>
    </mxGraphModel>
  </diagram>
</mxfile>
